<?xml version="1.0" standalone="no"?>
<!DOCTYPE svg PUBLIC "-//W3C//DTD SVG 20010904//EN"
 "http://www.w3.org/TR/2001/REC-SVG-20010904/DTD/svg10.dtd">
<svg version="1.0" xmlns="http://www.w3.org/2000/svg"
 width="676.000000pt" height="539.000000pt" viewBox="0 0 676.000000 539.000000"
 preserveAspectRatio="xMidYMid meet">
<metadata>
Created by potrace 1.16, written by Peter Selinger 2001-2019
</metadata>
<g transform="translate(0.000000,539.000000) scale(0.100000,-0.100000)"
fill="#000000" stroke="none">
<path d="M3201 4684 l-24 -17 21 -8 c20 -8 22 -16 22 -87 l0 -78 58 4 c57 4
58 4 77 -31 14 -27 27 -37 53 -42 19 -3 43 -12 54 -18 20 -12 38 2 81 63 l15
22 135 -36 c91 -24 146 -33 170 -29 43 7 35 20 158 -265 48 -112 99 -216 112
-231 13 -16 30 -44 37 -62 15 -37 36 -63 141 -178 l68 -74 106 28 c58 16 107
26 109 24 3 -2 -12 -59 -31 -126 l-36 -122 -174 -217 -173 -217 0 -53 c0 -41
5 -59 25 -82 24 -28 25 -36 25 -156 l0 -127 -53 -24 c-43 -18 -64 -37 -105
-92 -36 -48 -47 -69 -36 -71 10 -3 14 -20 14 -67 l0 -64 -50 -28 c-49 -27 -49
-28 -43 -70 4 -34 2 -44 -11 -49 -18 -7 -51 -62 -42 -71 7 -8 151 41 243 83
128 58 268 158 384 274 195 194 311 412 375 705 27 119 24 374 -6 515 -85 413
-352 757 -735 948 -198 99 -361 131 -695 138 -223 5 -247 4 -269 -12z"/>
<path d="M1123 1712 l-72 -3 -3 -92 c-2 -51 -1 -141 2 -202 l5 -110 100 -3
c56 -2 119 2 142 9 51 14 112 64 138 113 11 20 24 36 30 36 5 -1 23 -21 39
-47 90 -141 281 -146 370 -10 50 78 44 165 -17 234 -82 93 -224 97 -315 10
-19 -18 -40 -44 -48 -59 -20 -38 -40 -35 -63 11 -48 93 -122 121 -308 113z
m73 -119 c13 -17 13 -17 14 0 0 25 53 22 85 -6 21 -17 28 -34 31 -72 3 -31 -1
-56 -8 -66 -31 -39 -108 -54 -108 -21 -1 15 -2 15 -13 1 -26 -34 -37 -10 -37
80 0 102 8 121 36 84z m560 -2 c25 -15 33 -28 38 -65 11 -74 -25 -116 -100
-116 -61 0 -104 38 -104 92 0 49 13 73 48 92 37 21 81 19 118 -3z"/>
<path d="M1992 1713 l-73 -4 3 -47 3 -47 57 -3 c56 -3 58 -4 66 -35 5 -18 9
-79 11 -137 3 -140 3 -142 54 -138 40 3 42 5 49 43 4 22 7 81 8 130 1 126 4
135 51 135 21 0 50 5 65 10 24 9 26 14 21 46 -4 20 -7 38 -9 39 -6 6 -237 12
-306 8z"/>
<path d="M4185 1711 l-70 -6 -3 -38 c-3 -32 0 -38 23 -47 14 -6 44 -10 65 -10
46 0 44 5 57 -185 l8 -120 42 -3 c51 -4 50 -8 57 166 3 67 8 127 11 132 3 6
33 10 66 10 l59 0 0 49 0 48 -92 7 c-95 6 -108 6 -223 -3z"/>
<path d="M5044 1712 c-40 -3 -42 -5 -48 -41 -6 -37 -27 -58 -47 -45 -5 3 -9
23 -9 45 l0 40 -52 -3 -53 -3 -6 -120 c-4 -66 -7 -121 -8 -122 -17 -26 -58
-53 -81 -53 -72 0 -88 31 -96 184 l-7 116 -49 0 -48 0 0 -111 c0 -139 13 -190
59 -239 61 -64 145 -76 230 -33 40 19 62 39 84 75 28 45 32 47 51 35 14 -9 24
-31 30 -63 4 -27 10 -55 12 -61 2 -10 35 -13 121 -13 139 0 190 17 224 74 20
34 21 34 39 16 10 -10 22 -35 26 -55 l6 -36 152 3 151 3 3 48 c3 44 2 47 -21
47 -14 0 -39 3 -56 6 -27 6 -32 11 -29 33 3 22 8 26 41 29 l38 3 -3 42 c-3 38
-6 42 -33 47 -22 4 -31 11 -33 28 -3 19 1 22 31 22 58 0 67 7 67 56 l0 44
-154 0 -153 0 -7 -42 c-10 -61 -38 -117 -58 -118 -13 0 -18 8 -18 30 0 52 -26
99 -62 114 -34 14 -160 23 -234 18z"/>
<path d="M2602 1684 c-86 -43 -130 -143 -102 -230 31 -97 104 -148 210 -148
42 0 76 6 96 17 34 17 94 73 94 86 0 4 -18 16 -39 26 -38 17 -39 17 -70 -6
-59 -43 -155 -22 -181 40 -17 43 3 107 40 126 43 22 101 19 142 -9 35 -23 35
-23 71 -4 21 10 37 22 37 26 0 16 -66 71 -102 86 -58 25 -135 20 -196 -10z"/>
<path d="M3044 1691 c-50 -23 -98 -80 -114 -135 -22 -80 22 -181 100 -225 110
-62 231 -23 311 99 16 24 17 24 37 7 13 -12 22 -37 26 -78 l7 -60 47 3 c45 3
47 4 50 36 3 27 7 32 28 32 18 0 31 -10 45 -35 20 -33 24 -35 75 -35 50 0 55
2 76 35 27 42 68 49 68 13 0 -40 14 -50 61 -46 l44 3 5 110 c3 61 4 152 2 203
l-3 92 -57 0 -57 0 -40 -76 c-43 -82 -50 -91 -80 -94 -58 -6 -75 10 -134 128
-21 42 -22 42 -75 42 -57 0 -66 -9 -66 -67 0 -12 -10 -34 -23 -48 l-22 -27
-33 45 c-62 87 -184 121 -278 78z m171 -111 c47 -44 35 -133 -21 -159 -92 -41
-186 26 -162 117 18 69 127 94 183 42z"/>
</g>
</svg>
